<svg version="1.2" baseProfile="tiny-ps" xml:space="Edumentorslab" xmlns="http://www.w3.org/2000/svg" xmlns:xlink="http://www.w3.org/1999/xlink" x="0px" y="0px" viewBox="0 0 309 309" width="309" height="309">
  <path d="M 193,144 L 192,145 L 191,145 L 190,146 L 189,146 L 187,148 L 185,148 L 184,149 L 182,149 L 181,150 L 180,150 L 179,151 L 178,151 L 177,152 L 176,152 L 175,153 L 173,153 L 172,154 L 171,154 L 170,155 L 169,155 L 168,156 L 166,156 L 165,157 L 164,157 L 162,159 L 161,159 L 161,298 L 163,300 L 163,301 L 166,304 L 167,304 L 170,307 L 173,307 L 174,308 L 184,308 L 185,307 L 187,307 L 188,306 L 189,306 L 191,304 L 192,304 L 195,301 L 195,300 L 196,299 L 196,298 L 197,297 L 197,267 L 196,266 L 196,243 L 197,242 L 197,160 L 196,159 L 196,156 L 197,155 L 197,152 L 196,151 L 196,148 L 197,147 L 196,146 L 197,145 L 196,144 Z" fill="#B28F40" stroke="#B28F40" stroke-width="1"/>
  <path d="M 113,144 L 113,145 L 112,146 L 112,299 L 113,300 L 113,301 L 115,303 L 116,303 L 118,305 L 119,305 L 121,307 L 124,307 L 125,308 L 136,308 L 138,306 L 140,306 L 142,304 L 143,304 L 145,302 L 145,301 L 147,299 L 147,298 L 148,297 L 148,160 L 146,158 L 145,158 L 144,157 L 143,157 L 142,156 L 141,156 L 140,155 L 138,155 L 137,154 L 136,154 L 135,153 L 134,153 L 133,152 L 131,152 L 130,151 L 129,151 L 128,150 L 127,150 L 126,149 L 125,149 L 124,148 L 123,148 L 122,147 L 121,147 L 120,146 L 119,146 L 118,145 L 116,145 L 115,144 Z" fill="#B28F40" stroke="#B28F40" stroke-width="1"/>
  <path d="M 261,43 L 260,44 L 259,44 L 257,46 L 256,46 L 255,47 L 254,47 L 252,49 L 251,49 L 249,51 L 248,51 L 247,52 L 246,52 L 245,53 L 244,53 L 242,55 L 241,55 L 240,56 L 239,56 L 237,58 L 236,58 L 235,59 L 233,59 L 233,60 L 232,61 L 231,61 L 230,62 L 229,62 L 227,64 L 226,64 L 225,65 L 224,65 L 222,67 L 221,67 L 220,68 L 219,68 L 217,70 L 216,70 L 215,71 L 214,71 L 212,73 L 211,73 L 209,75 L 208,75 L 207,76 L 206,76 L 204,78 L 203,78 L 202,79 L 201,79 L 199,81 L 198,81 L 197,82 L 196,82 L 194,84 L 193,84 L 191,86 L 190,86 L 189,87 L 188,87 L 187,88 L 186,88 L 183,91 L 181,91 L 178,94 L 177,94 L 176,95 L 175,95 L 173,97 L 172,97 L 171,98 L 170,98 L 168,100 L 167,100 L 166,101 L 165,101 L 163,103 L 163,104 L 162,105 L 162,122 L 161,123 L 161,127 L 162,128 L 161,129 L 161,138 L 162,138 L 163,137 L 164,137 L 166,135 L 167,135 L 168,134 L 169,134 L 170,133 L 171,133 L 172,132 L 173,132 L 175,130 L 176,130 L 178,128 L 179,128 L 180,127 L 181,127 L 182,126 L 183,126 L 186,123 L 188,123 L 189,122 L 190,122 L 191,121 L 192,121 L 194,119 L 195,119 L 196,118 L 197,118 L 198,117 L 199,117 L 202,114 L 204,114 L 206,112 L 207,112 L 209,110 L 210,110 L 211,109 L 212,109 L 214,107 L 215,107 L 216,106 L 217,106 L 218,105 L 219,105 L 220,104 L 221,104 L 223,102 L 224,102 L 226,100 L 227,100 L 228,99 L 230,99 L 231,98 L 232,98 L 235,95 L 236,95 L 237,94 L 238,94 L 239,93 L 240,93 L 242,91 L 243,91 L 244,90 L 245,90 L 246,89 L 247,89 L 250,86 L 252,86 L 253,85 L 254,85 L 256,83 L 257,83 L 264,76 L 264,43 Z" fill="#B28F40" stroke="#B28F40" stroke-width="1"/>
  <path d="M 46,43 L 45,44 L 45,58 L 44,59 L 44,74 L 45,75 L 45,76 L 46,77 L 46,78 L 49,81 L 50,81 L 53,84 L 55,84 L 57,86 L 58,86 L 59,87 L 60,87 L 62,89 L 63,89 L 64,90 L 65,90 L 66,91 L 67,91 L 70,94 L 71,94 L 72,95 L 73,95 L 74,96 L 75,96 L 76,97 L 77,97 L 79,99 L 80,99 L 82,101 L 83,101 L 84,102 L 85,102 L 86,103 L 87,103 L 89,105 L 90,105 L 91,106 L 93,106 L 95,108 L 96,108 L 98,110 L 99,110 L 100,111 L 101,111 L 102,112 L 103,112 L 105,114 L 106,114 L 107,115 L 108,115 L 109,116 L 110,116 L 111,117 L 112,117 L 114,119 L 115,119 L 117,121 L 118,121 L 119,122 L 120,122 L 122,124 L 123,124 L 124,125 L 125,125 L 126,126 L 127,126 L 128,127 L 129,127 L 132,130 L 133,130 L 134,131 L 136,131 L 137,132 L 137,133 L 138,133 L 139,134 L 140,134 L 141,135 L 142,135 L 144,137 L 147,137 L 147,136 L 148,135 L 148,130 L 147,129 L 147,126 L 148,125 L 148,123 L 147,122 L 147,105 L 146,104 L 146,103 L 145,103 L 143,101 L 142,101 L 139,98 L 138,98 L 137,97 L 136,97 L 134,95 L 133,95 L 132,94 L 131,94 L 128,91 L 126,91 L 124,89 L 123,89 L 121,87 L 120,87 L 119,86 L 118,86 L 117,85 L 116,85 L 114,83 L 113,83 L 112,82 L 111,82 L 109,80 L 108,80 L 107,79 L 106,79 L 103,76 L 102,76 L 101,75 L 100,75 L 99,74 L 98,74 L 96,72 L 95,72 L 93,70 L 91,70 L 88,67 L 86,67 L 84,65 L 83,65 L 82,64 L 81,64 L 79,62 L 78,62 L 76,60 L 75,60 L 74,59 L 73,59 L 71,57 L 70,57 L 69,56 L 68,56 L 67,55 L 66,55 L 64,53 L 63,53 L 60,50 L 58,50 L 56,48 L 55,48 L 54,47 L 53,47 L 50,44 L 49,44 L 48,43 Z" fill="#B28F40" stroke="#B28F40" stroke-width="1"/>
  <path d="M 148,0 L 147,1 L 144,1 L 143,2 L 141,2 L 140,3 L 138,3 L 136,5 L 135,5 L 134,6 L 133,6 L 128,11 L 127,11 L 126,12 L 126,13 L 122,17 L 122,18 L 121,19 L 121,20 L 120,21 L 120,23 L 118,25 L 118,28 L 117,29 L 117,47 L 118,48 L 118,50 L 119,51 L 119,52 L 120,53 L 120,55 L 121,56 L 121,57 L 124,60 L 124,61 L 131,68 L 132,68 L 134,70 L 135,70 L 137,72 L 139,72 L 140,73 L 141,73 L 142,74 L 145,74 L 146,75 L 161,75 L 162,74 L 167,74 L 168,73 L 169,73 L 170,72 L 171,72 L 172,71 L 173,71 L 174,70 L 175,70 L 177,68 L 178,68 L 184,62 L 184,60 L 188,56 L 188,54 L 189,53 L 189,52 L 190,51 L 190,50 L 191,49 L 191,45 L 192,44 L 192,32 L 191,31 L 191,27 L 190,26 L 190,25 L 189,24 L 189,22 L 188,21 L 188,20 L 187,19 L 187,18 L 185,16 L 185,15 L 183,13 L 183,12 L 182,11 L 181,11 L 177,7 L 176,7 L 174,5 L 173,5 L 172,4 L 171,4 L 170,3 L 169,3 L 168,2 L 165,2 L 164,1 L 161,1 L 160,0 Z" fill="#0D4679" stroke="#0D4679" stroke-width="1"/>
</svg>